Coordinates
version=1
nRows=12
nColumns=24
inDegrees=yes

Units are S.I. units (second, meters, Newtons, ...)
Angles are in degrees.

endheader
time	pelvis_tilt	pelvis_list	pelvis_rotation	pelvis_tx	pelvis_ty	pelvis_tz	hip_flexion_r	hip_adduction_r	hip_rotation_r	knee_angle_r	ankle_angle_r	subtalar_angle_r	mtp_angle_r	hip_flexion_l	hip_adduction_l	hip_rotation_l	knee_angle_l	ankle_angle_l	subtalar_angle_l	mtp_angle_l	lumbar_extension	lumbar_bending	lumbar_rotation
      0.69000000	     -0.90756784	      0.08933972	      1.93514389	     -0.52109484	      1.05973687	      0.28771989	     13.75286143	      2.01912120	     -1.10209009	    -27.15050952	     16.56264908	     -4.27041183	      5.43800891	     17.34910553	     -3.58881938	     -4.84456367	    -70.43444583	      6.87304586	      8.97933610	      6.60738169	    -11.03461012	      2.98641039	     -0.44291729
      0.69416667	     -0.93066709	      0.29722286	      1.94125564	     -0.51536270	      1.06129051	      0.28771734	     13.15874045	      1.80254718	     -1.06432831	    -26.59964808	     16.55033882	     -4.22998027	      5.44011466	     17.88584475	     -3.30244851	     -4.97722873	    -69.92160769	      7.12017714	      8.98773637	      6.61483352	    -11.02813380	      2.75350809	     -0.41741687
      0.69833333	     -0.92928656	      0.52640018	      1.92940849	     -0.50964158	      1.06287901	      0.28774576	     12.53789010	      1.56832274	     -1.00384995	    -26.04282190	     16.54400271	     -4.19619748	      5.44357003	     18.37127959	     -2.99710204	     -5.12931423	    -69.32783544	      7.33302759	      8.99255118	      6.62268389	    -11.05618828	      2.48757943	     -0.37713446
      0.70250000	     -0.92910547	      0.74486835	      1.91457246	     -0.50391795	      1.06441249	      0.28776235	     11.91853452	      1.34443813	     -0.94760490	    -25.48181808	     16.52605576	     -4.16658369	      5.44697381	     18.84663256	     -2.70648110	     -5.28386671	    -68.68460010	      7.54105852	      8.99881919	      6.63050677	    -11.08094382	      2.23340753	     -0.33067236
      0.70666667	     -0.92051389	      0.97436645	      1.88328318	     -0.49820353	      1.06591728	      0.28780010	     11.29416601	      1.11220565	     -0.87135859	    -24.92387703	     16.51164469	     -4.14555675	      5.45228946	     19.29359438	     -2.40757889	     -5.45110208	    -67.97720628	      7.72866119	      8.99556280	      6.63874742	    -11.11947853	      1.96223385	     -0.26457302
      0.71083333	     -0.90394464	      1.19146968	      1.84460286	     -0.49249045	      1.06737564	      0.28784426	     10.66068591	      0.89427000	     -0.79230284	    -24.35879418	     16.49841152	     -4.13498317	      5.46126908	     19.71917030	     -2.12971260	     -5.62582523	    -67.22301136	      7.90151297	      8.97685939	      6.64883995	    -11.16651277	      1.69447931	     -0.16723981
      0.71500000	     -0.89720147	      1.42190454	      1.79912082	     -0.48678880	      1.06875492	      0.28789068	     10.04837681	      0.65985175	     -0.71322905	    -23.81193454	     16.47444168	     -4.11998588	      5.46955698	     20.14067354	     -1.83692898	     -5.80065992	    -66.41573314	      8.06856177	      8.95918526	      6.65671140	    -11.20344257	      1.42007971	     -0.09783691
      0.71916667	     -0.89643403	      1.64254028	      1.74676241	     -0.48107866	      1.07006693	      0.28793199	      9.44532883	      0.43593735	     -0.62802737	    -23.26645786	     16.44290835	     -4.11757633	      5.47826443	     20.55399311	     -1.55715095	     -5.97654020	    -65.56132302	      8.22151845	      8.92181592	      6.66270911	    -11.23712740	      1.15129115	     -0.01484087
      0.72333333	     -0.89846111	      1.86052963	      1.68947214	     -0.47538063	      1.07129289	      0.28797341	      8.85324703	      0.21358881	     -0.54266633	    -22.73265759	     16.41520177	     -4.11254072	      5.48760446	     20.95896732	     -1.28286647	     -6.14885614	    -64.66405488	      8.36090468	      8.87532982	      6.66597205	    -11.26744833	      0.88703539	      0.07089286
      0.72750000	     -0.88917368	      2.07700945	      1.62411266	     -0.46969640	      1.07248532	      0.28802047	      8.25443753	     -0.00600566	     -0.45025726	    -22.20409025	     16.38094441	     -4.11744133	      5.49705833	     21.33613233	     -1.01259794	     -6.32016783	    -63.71842108	      8.47967348	      8.81138982	      6.66576443	    -11.31466437	      0.62327718	      0.16351033
      0.73166667	     -0.88305356	      2.29181848	      1.55274386	     -0.46401871	      1.07358787	      0.28806938	      7.66906542	     -0.22568719	     -0.35867652	    -21.69230268	     16.35713212	     -4.12527041	      5.50489442	     21.70402682	     -0.74810767	     -6.49223464	    -62.73232894	      8.57831349	      8.73558440	      6.66205341	    -11.35562899	      0.36031759	      0.24993115
      0.73583333	     -0.88739185	      2.50373087	      1.47569173	     -0.45835051	      1.07459097	      0.28812005	      7.10567770	     -0.44363387	     -0.26692400	    -21.19744210	     16.33532300	     -4.13370330	      5.51167214	     22.07096367	     -0.48923925	     -6.66082504	    -61.70752930	      8.65900389	      8.64203333	      6.65470773	    -11.38780250	      0.10039589	      0.34234186
